<svg width="29" height="29" viewBox="0 0 29 29" fill="none" xmlns="http://www.w3.org/2000/svg">
<path fill-rule="evenodd" clip-rule="evenodd" d="M23.8333 15.4145V21.2478C23.8333 22.1761 23.4646 23.0663 22.8082 23.7227C22.1518 24.3791 21.2616 24.7478 20.3333 24.7478H15.6667V15.4145H23.8333ZM13.3333 15.4145V24.7478H8.66667C7.73841 24.7478 6.84817 24.3791 6.19179 23.7227C5.53542 23.0663 5.16667 22.1761 5.16667 21.2478V15.4145H13.3333ZM11 2.58118C11.6621 2.58114 12.3166 2.72198 12.92 2.99433C13.5235 3.26669 14.062 3.66433 14.5 4.16084C14.938 3.66433 15.4765 3.26669 16.08 2.99433C16.6834 2.72198 17.3379 2.58114 18 2.58118H18.5833C19.0475 2.58118 19.4926 2.76555 19.8208 3.09374C20.149 3.42193 20.3333 3.86705 20.3333 4.33118V4.91451C20.3333 5.76501 20.1058 6.56184 19.7092 7.24784H22.6667C23.2855 7.24784 23.879 7.49368 24.3166 7.93126C24.7542 8.36885 25 8.96234 25 9.58118V11.9145C25 12.3392 24.8868 12.7382 24.6873 13.0812H15.6667V9.58118C15.6667 9.27176 15.5437 8.97501 15.325 8.75622C15.1062 8.53743 14.8094 8.41451 14.5 8.41451C14.1906 8.41451 13.8938 8.53743 13.675 8.75622C13.4562 8.97501 13.3333 9.27176 13.3333 9.58118V13.0812H4.31267C4.10785 12.7265 4.00002 12.3241 4 11.9145V9.58118C4 8.96234 4.24583 8.36885 4.68342 7.93126C5.121 7.49368 5.71449 7.24784 6.33333 7.24784H9.29083C8.88161 6.53832 8.66635 5.73359 8.66667 4.91451V4.33118C8.66667 3.86705 8.85104 3.42193 9.17923 3.09374C9.50742 2.76555 9.95254 2.58118 10.4167 2.58118H11ZM11 4.91451C11 5.53335 11.2458 6.12684 11.6834 6.56443C12.121 7.00201 12.7145 7.24784 13.3333 7.24784C13.3333 6.62901 13.0875 6.03551 12.6499 5.59793C12.2123 5.16034 11.6188 4.91451 11 4.91451ZM18 4.91451C17.3812 4.91451 16.7877 5.16034 16.3501 5.59793C15.9125 6.03551 15.6667 6.62901 15.6667 7.24784C16.2855 7.24784 16.879 7.00201 17.3166 6.56443C17.7542 6.12684 18 5.53335 18 4.91451Z" fill="white"/>
</svg>
