<svg width="48" height="48" viewBox="0 0 48 48" fill="none" xmlns="http://www.w3.org/2000/svg">
<path d="M12.25 24.3C13.1166 22.1 14.1586 19.9834 15.376 17.95C16.5933 15.9167 17.968 14 19.5 12.2L16.9 11.65C16.2333 11.5167 15.5833 11.55 14.95 11.75C14.3166 11.95 13.7666 12.2834 13.3 12.75L6.99998 19.05C6.49998 19.55 6.30798 20.15 6.42398 20.85C6.53998 21.55 6.93198 22.0334 7.59998 22.3L12.25 24.3ZM41.65 4.80002C38.1166 4.63336 34.7586 5.31669 31.576 6.85002C28.3933 8.38336 25.5513 10.4 23.05 12.9C21.45 14.5 20.0413 16.2334 18.824 18.1C17.6066 19.9667 16.5493 21.9334 15.652 24C15.4853 24.4334 15.402 24.8754 15.402 25.326C15.402 25.7767 15.5686 26.168 15.902 26.5L22.152 32.75C22.4853 33.0834 22.8773 33.25 23.328 33.25C23.7786 33.25 24.22 33.1667 24.652 33C26.7186 32.1 28.6853 31.0414 30.552 29.824C32.4186 28.6067 34.152 27.1987 35.752 25.6C38.252 23.1 40.2686 20.2587 41.802 17.076C43.3353 13.8934 44.018 10.5347 43.85 7.00002C43.85 6.73336 43.7833 6.46669 43.65 6.20002C43.5166 5.93336 43.35 5.70002 43.15 5.50002C42.95 5.30002 42.7166 5.13336 42.45 5.00002C42.1833 4.86669 41.9166 4.80002 41.65 4.80002ZM28.95 19.7C28.1833 18.9334 27.8 17.992 27.8 16.876C27.8 15.76 28.1833 14.818 28.95 14.05C29.7166 13.282 30.6586 12.8987 31.776 12.9C32.8933 12.9014 33.8346 13.2847 34.6 14.05C35.3653 14.8154 35.7486 15.7574 35.75 16.876C35.7513 17.9947 35.368 18.936 34.6 19.7C33.832 20.464 32.8906 20.8474 31.776 20.85C30.6613 20.8527 29.7193 20.4694 28.95 19.7ZM24.35 36.4L26.35 41.05C26.6166 41.7167 27.1 42.1167 27.8 42.25C28.5 42.3834 29.1 42.2 29.6 41.7L35.9 35.4C36.3666 34.9334 36.7 34.3754 36.9 33.726C37.1 33.0767 37.1333 32.418 37 31.75L36.5 29.15C34.6666 30.6834 32.742 32.0587 30.726 33.276C28.71 34.4934 26.5846 35.5347 24.35 36.4ZM8.09998 32.1C9.26664 30.9334 10.6833 30.3414 12.35 30.324C14.0166 30.3067 15.4333 30.882 16.6 32.05C17.7666 33.218 18.35 34.6347 18.35 36.3C18.35 37.9654 17.7666 39.382 16.6 40.55C15 42.15 13.108 43.1 10.924 43.4C8.73998 43.7 6.54864 44 4.34998 44.3C4.64998 42.1 4.95864 39.9087 5.27598 37.726C5.59331 35.5434 6.53464 33.668 8.09998 32.1Z" fill="#00004D"/>
</svg>
