<svg width="48" height="48" viewBox="0 0 48 48" fill="none" xmlns="http://www.w3.org/2000/svg">
<path fill-rule="evenodd" clip-rule="evenodd" d="M40 26V36C40 37.5913 39.3679 39.1174 38.2426 40.2426C37.1174 41.3679 35.5913 42 34 42H26V26H40ZM22 26V42H14C12.4087 42 10.8826 41.3679 9.75736 40.2426C8.63214 39.1174 8 37.5913 8 36V26H22ZM18 4C19.135 3.99994 20.257 4.24137 21.2914 4.70827C22.3259 5.17517 23.2492 5.85684 24 6.708C24.7508 5.85684 25.6741 5.17517 26.7086 4.70827C27.743 4.24137 28.865 3.99994 30 4H31C31.7956 4 32.5587 4.31607 33.1213 4.87868C33.6839 5.44129 34 6.20435 34 7V8C34 9.458 33.61 10.824 32.93 12H38C39.0609 12 40.0783 12.4214 40.8284 13.1716C41.5786 13.9217 42 14.9391 42 16V20C42 20.728 41.806 21.412 41.464 22H26V16C26 15.4696 25.7893 14.9609 25.4142 14.5858C25.0391 14.2107 24.5304 14 24 14C23.4696 14 22.9609 14.2107 22.5858 14.5858C22.2107 14.9609 22 15.4696 22 16V22H6.536C6.18489 21.3919 6.00003 20.7022 6 20V16C6 14.9391 6.42143 13.9217 7.17157 13.1716C7.92172 12.4214 8.93913 12 10 12H15.07C14.3685 10.7837 13.9995 9.40413 14 8V7C14 6.20435 14.3161 5.44129 14.8787 4.87868C15.4413 4.31607 16.2044 4 17 4H18ZM18 8C18 9.06087 18.4214 10.0783 19.1716 10.8284C19.9217 11.5786 20.9391 12 22 12C22 10.9391 21.5786 9.92172 20.8284 9.17157C20.0783 8.42143 19.0609 8 18 8ZM30 8C28.9391 8 27.9217 8.42143 27.1716 9.17157C26.4214 9.92172 26 10.9391 26 12C27.0609 12 28.0783 11.5786 28.8284 10.8284C29.5786 10.0783 30 9.06087 30 8Z" fill="#00004D"/>
</svg>
