<svg width="29" height="29" viewBox="0 0 29 29" fill="none" xmlns="http://www.w3.org/2000/svg">
<path d="M24.608 4.39095L9.83331 9.66661V17.8333L10.706 18.1448L9.39115 20.7744C9.24159 21.0734 9.15803 21.4011 9.14612 21.7352C9.13421 22.0693 9.19423 22.402 9.32212 22.7109C9.45001 23.0198 9.64278 23.2976 9.88737 23.5255C10.132 23.7533 10.4227 23.926 10.7398 24.0318L15.5045 25.6196C16.0375 25.7934 16.615 25.771 17.1329 25.5564C17.6508 25.3418 18.075 24.9492 18.329 24.4494L19.8491 21.4091L24.608 23.1089C24.784 23.1717 24.9724 23.1913 25.1576 23.1661C25.3427 23.1408 25.519 23.0715 25.6718 22.9639C25.8245 22.8563 25.9492 22.7136 26.0353 22.5478C26.1215 22.382 26.1665 22.198 26.1666 22.0111V5.48878C26.1665 5.30194 26.1215 5.11788 26.0353 4.95207C25.9492 4.78626 25.8245 4.64356 25.6718 4.53597C25.519 4.42838 25.3427 4.35905 25.1576 4.33381C24.9724 4.30858 24.784 4.32817 24.608 4.39095ZM16.2418 23.4064L11.4783 21.8186L12.9191 18.9358L17.6348 20.6204L16.2418 23.4064ZM5.16665 17.8333H7.49998V9.66661H5.16665C3.87981 9.66661 2.83331 10.7131 2.83331 11.9999V15.4999C2.83331 16.7868 3.87981 17.8333 5.16665 17.8333Z" fill="white"/>
</svg>
