<svg width="64" height="64" viewBox="0 0 64 64" fill="none" xmlns="http://www.w3.org/2000/svg">
<path d="M30.728 1.04841C31.4667 0.439548 32.5333 0.439548 33.272 1.04841L38.2153 5.12266C38.662 5.49084 39.2463 5.64741 39.8173 5.55191L46.1354 4.49514C47.0796 4.33721 48.0033 4.87051 48.3386 5.76717L50.5825 11.7672C50.7852 12.3094 51.213 12.7372 51.7552 12.9399L57.7552 15.1838C58.6519 15.5191 59.1852 16.4428 59.0272 17.387L57.9705 23.7051C57.875 24.2761 58.0315 24.8604 58.3997 25.3071L62.474 30.2504C63.0828 30.9891 63.0828 32.0557 62.474 32.7944L58.3997 37.7377C58.0315 38.1844 57.875 38.7687 57.9705 39.3397L59.0272 45.6578C59.1852 46.602 58.6519 47.5257 57.7552 47.861L51.7552 50.1049C51.213 50.3076 50.7852 50.7354 50.5825 51.2776L48.3386 57.2776C48.0033 58.1743 47.0796 58.7076 46.1354 58.5496L39.8173 57.4929C39.2463 57.3974 38.662 57.5539 38.2153 57.9221L33.272 61.9964C32.5333 62.6052 31.4667 62.6052 30.728 61.9964L25.7847 57.9221C25.338 57.5539 24.7537 57.3974 24.1827 57.4929L17.8646 58.5496C16.9204 58.7076 15.9967 58.1743 15.6614 57.2776L13.4175 51.2776C13.2148 50.7354 12.787 50.3076 12.2448 50.1049L6.24477 47.861C5.34811 47.5257 4.81481 46.602 4.97274 45.6578L6.02951 39.3397C6.12501 38.7687 5.96844 38.1844 5.60026 37.7377L1.52601 32.7944C0.917148 32.0557 0.917148 30.9891 1.52601 30.2504L5.60026 25.3071C5.96844 24.8604 6.12501 24.2761 6.02951 23.7051L4.97274 17.387C4.81481 16.4428 5.34811 15.5191 6.24477 15.1838L12.2448 12.9399C12.787 12.7372 13.2148 12.3094 13.4175 11.7672L15.6614 5.76717C15.9967 4.87051 16.9204 4.33721 17.8646 4.49514L24.1827 5.55191C24.7537 5.64741 25.338 5.49084 25.7847 5.12266L30.728 1.04841Z" fill="#00004D"/>
<path d="M33.0168 18.3032C33.0168 18.0335 33.1239 17.7749 33.3146 17.5842C33.5053 17.3935 33.764 17.2864 34.0337 17.2864H39.1179C39.3433 17.2864 39.5623 17.3614 39.7405 17.4994C39.9186 17.6375 40.0459 17.8308 40.1022 18.049H40.389C40.8771 18.0488 41.3582 18.1657 41.7919 18.3899C42.2255 18.6141 42.5989 18.9392 42.8809 19.3377C43.1628 19.7362 43.345 20.1965 43.4122 20.6801C43.4793 21.1636 43.4294 21.6562 43.2667 22.1164C43.4993 22.7744 43.4993 23.4922 43.2667 24.1501C43.4037 24.5381 43.4609 24.9498 43.4347 25.3605C43.4085 25.7712 43.2994 26.1723 43.1141 26.5397C43.1616 26.7519 43.1853 26.9709 43.1853 27.1966V27.705C43.1854 28.4702 42.898 29.2074 42.3801 29.7705C41.8621 30.3337 41.1514 30.6817 40.389 30.7454V30.7597H40.1215C40.2924 31.1786 40.3249 31.6606 40.1734 32.1385L37.0456 41.9694C36.7771 43.033 36.35 44.2106 35.5772 45.1379C34.7597 46.1192 33.5903 46.7751 32 46.7751H18.7809C18.2415 46.7751 17.7242 46.5608 17.3429 46.1794C16.9615 45.798 16.7472 45.2807 16.7472 44.7414V38.6403C16.7472 38.1009 16.9615 37.5836 17.3429 37.2022C17.7242 36.8208 18.2415 36.6066 18.7809 36.6066H28.741L30.7747 30.9122H30.7726L30.8275 30.7658C30.9028 30.5634 30.9699 30.3855 31.0024 30.2278C30.8061 30.1349 30.6237 30.0152 30.4604 29.8719C29.6711 29.0797 29.2204 28.0118 29.2036 26.8936V24.2355C29.2036 23.269 29.5876 22.342 30.271 21.6586C30.9545 20.9751 31.8815 20.5911 32.848 20.5911H32.9802L33.0168 20.5779V18.3032ZM38.8637 20.0827C38.594 20.0827 38.3354 20.1899 38.1447 20.3805C37.954 20.5712 37.8469 20.8299 37.8469 21.0996C37.8469 21.3693 37.954 21.6279 38.1447 21.8186C38.3354 22.0093 38.594 22.1164 38.8637 22.1164C38.594 22.1164 38.3354 22.2236 38.1447 22.4142C37.954 22.6049 37.8469 22.8636 37.8469 23.1333C37.8469 23.403 37.954 23.6616 38.1447 23.8523C38.3354 24.043 38.594 24.1501 38.8637 24.1501C38.5996 24.1502 38.3459 24.253 38.1562 24.4368C37.9666 24.6206 37.8559 24.871 37.8476 25.1349C37.8393 25.3989 37.934 25.6557 38.1116 25.8511C38.2893 26.0465 38.5361 26.1651 38.7996 26.1818C38.5417 26.1983 38.2998 26.3124 38.123 26.5009C37.9462 26.6894 37.8479 26.9382 37.8479 27.1966V27.4549H34.0337C33.764 27.4549 33.5053 27.3478 33.3146 27.1571C33.1239 26.9664 33.0168 26.7077 33.0168 26.438V25.4212H34.1353C34.5062 25.4212 34.8618 25.2739 35.124 25.0117C35.3862 24.7495 35.5335 24.3938 35.5335 24.023C35.5335 23.6522 35.3862 23.2966 35.124 23.0344C34.8618 22.7722 34.5062 22.6248 34.1353 22.6248H32.848C31.9583 22.6248 31.2373 23.3468 31.2373 24.2355V26.8936C31.2373 27.402 31.4915 28.4717 32.7626 28.9802C32.905 29.0371 32.967 29.1886 32.9507 29.4886H38.2353C38.3146 29.4886 38.3926 29.493 38.4692 29.5018C38.5902 29.0564 38.8078 28.7778 39.1179 28.726H39.8806C39.9111 28.726 39.9416 28.7246 39.9721 28.7219H40.1348C40.4045 28.7219 40.6631 28.6148 40.8538 28.4241C41.0445 28.2334 41.1516 27.9747 41.1516 27.705V27.1966C41.1516 26.9428 41.0567 26.6981 40.8855 26.5107C40.7142 26.3233 40.4791 26.2067 40.2263 26.1838H40.389C40.6587 26.1838 40.9173 26.0767 41.108 25.886C41.2987 25.6953 41.4058 25.4367 41.4058 25.167C41.4058 24.8973 41.2987 24.6386 41.108 24.448C40.9173 24.2573 40.6587 24.1501 40.389 24.1501C40.6587 24.1501 40.9173 24.043 41.108 23.8523C41.2987 23.6616 41.4058 23.403 41.4058 23.1333C41.4058 22.8636 41.2987 22.6049 41.108 22.4142C40.9173 22.2236 40.6587 22.1164 40.389 22.1164C40.6587 22.1164 40.9173 22.0093 41.108 21.8186C41.2987 21.6279 41.4058 21.3693 41.4058 21.0996C41.4058 20.8299 41.2987 20.5712 41.108 20.3805C40.9173 20.1899 40.6587 20.0827 40.389 20.0827H38.8637ZM38.2353 31.5223H32.7168L30.6567 37.2909C30.5155 37.6859 30.2557 38.0276 29.9127 38.2692C29.5697 38.5108 29.1605 38.6404 28.741 38.6403H18.7809V44.7414H32C32.9517 44.7414 33.5618 44.3804 34.0154 43.8364C34.5055 43.2466 34.841 42.4057 35.081 41.4447L35.0892 41.4132L38.2353 31.5223Z" fill="#1BF266"/>
<path d="M38.2353 31.5223H32.7168L30.6567 37.2909C30.5155 37.6859 30.2557 38.0276 29.9127 38.2692C29.5697 38.5108 29.1605 38.6404 28.741 38.6403H18.7809V44.7414H32C32.9517 44.7414 33.5618 44.3804 34.0154 43.8364C34.5055 43.2466 34.841 42.4057 35.081 41.4447L35.0892 41.4132L38.2353 31.5223Z" fill="#00AA3B"/>
<path d="M38.8637 20.0827C38.594 20.0827 38.3354 20.1899 38.1447 20.3805C37.954 20.5712 37.8469 20.8299 37.8469 21.0996C37.8469 21.3693 37.954 21.6279 38.1447 21.8186C38.3354 22.0093 38.594 22.1164 38.8637 22.1164C38.594 22.1164 38.3354 22.2236 38.1447 22.4142C37.954 22.6049 37.8469 22.8636 37.8469 23.1333C37.8469 23.403 37.954 23.6616 38.1447 23.8523C38.3354 24.043 38.594 24.1501 38.8637 24.1501C38.5996 24.1502 38.3459 24.253 38.1562 24.4368C37.9666 24.6206 37.8559 24.871 37.8476 25.1349C37.8393 25.3989 37.934 25.6557 38.1116 25.8511C38.2893 26.0465 38.5361 26.1651 38.7996 26.1818C38.5417 26.1983 38.2998 26.3124 38.123 26.5009C37.9462 26.6894 37.8479 26.9382 37.8479 27.1966V27.4549H34.0337C33.764 27.4549 33.5053 27.3478 33.3146 27.1571C33.1239 26.9664 33.0168 26.7077 33.0168 26.438V25.4212H34.1353C34.5062 25.4212 34.8618 25.2739 35.124 25.0117C35.3862 24.7495 35.5335 24.3938 35.5335 24.023C35.5335 23.6522 35.3862 23.2966 35.124 23.0344C34.8618 22.7722 34.5062 22.6248 34.1353 22.6248H32.848C31.9583 22.6248 31.2373 23.3468 31.2373 24.2355V26.8936C31.2373 27.402 31.4915 28.4717 32.7626 28.9802C32.905 29.0371 32.967 29.1886 32.9507 29.4886H38.2353C38.3146 29.4886 38.3926 29.493 38.4692 29.5018C38.5902 29.0564 38.8078 28.7778 39.1179 28.726H39.8806C39.9111 28.726 39.9416 28.7246 39.9721 28.7219H40.1348C40.4045 28.7219 40.6631 28.6148 40.8538 28.4241C41.0445 28.2334 41.1516 27.9747 41.1516 27.705V27.1966C41.1516 26.9428 41.0567 26.6981 40.8855 26.5107C40.7142 26.3233 40.4791 26.2067 40.2263 26.1838H40.389C40.6587 26.1838 40.9173 26.0767 41.108 25.886C41.2987 25.6953 41.4058 25.4367 41.4058 25.167C41.4058 24.8973 41.2987 24.6386 41.108 24.448C40.9173 24.2573 40.6587 24.1501 40.389 24.1501C40.6587 24.1501 40.9173 24.043 41.108 23.8523C41.2987 23.6616 41.4058 23.403 41.4058 23.1333C41.4058 22.8636 41.2987 22.6049 41.108 22.4142C40.9173 22.2236 40.6587 22.1164 40.389 22.1164C40.6587 22.1164 40.9173 22.0093 41.108 21.8186C41.2987 21.6279 41.4058 21.3693 41.4058 21.0996C41.4058 20.8299 41.2987 20.5712 41.108 20.3805C40.9173 20.1899 40.6587 20.0827 40.389 20.0827H38.8637Z" fill="#00AA3B"/>
</svg>
