<svg width="20" height="20" viewBox="0 0 20 20" fill="none" xmlns="http://www.w3.org/2000/svg">
<path d="M9.63833 17.5934C9.74394 17.6682 9.87017 17.7084 9.99958 17.7084C10.129 17.7084 10.2552 17.6682 10.3608 17.5934L10 17.0834L10.3617 17.5934L10.3683 17.5884L10.3858 17.5759L10.4525 17.5276C10.5103 17.4859 10.5922 17.4251 10.6983 17.3451C11.9367 16.4104 13.1056 15.3872 14.1958 14.2834C15.1525 13.3101 16.125 12.1726 16.8617 10.9659C17.595 9.76592 18.125 8.44592 18.125 7.12258C18.125 5.55175 17.6375 4.32425 16.775 3.49091C15.9167 2.66258 14.7583 2.29175 13.5417 2.29175C12.1042 2.29175 10.835 2.98591 10 4.05591C9.165 2.98591 7.895 2.29175 6.45833 2.29175C3.89167 2.29175 1.875 4.49091 1.875 7.12258C1.875 8.44592 2.40583 9.76508 3.13833 10.9659C3.875 12.1726 4.8475 13.3101 5.80417 14.2842C6.96651 15.4602 8.21801 16.5445 9.5475 17.5276L9.61417 17.5759L9.63167 17.5884L9.63833 17.5934Z" fill="white"/>
</svg>
