<svg width="64" height="64" viewBox="0 0 64 64" fill="none" xmlns="http://www.w3.org/2000/svg">
<path d="M30.728 1.04841C31.4667 0.439548 32.5333 0.439548 33.272 1.04841L38.3201 5.20906C38.7668 5.57724 39.3511 5.7338 39.9221 5.63831L46.3742 4.55912C47.3184 4.4012 48.2421 4.9345 48.5774 5.83116L50.8689 11.9584C51.0716 12.5006 51.4994 12.9284 52.0416 13.1311L58.1688 15.4226C59.0655 15.7579 59.5988 16.6816 59.4409 17.6258L58.3617 24.0779C58.2662 24.6489 58.4228 25.2332 58.7909 25.6799L62.9516 30.728C63.5605 31.4667 63.5605 32.5333 62.9516 33.272L58.7909 38.3201C58.4228 38.7668 58.2662 39.3511 58.3617 39.9221L59.4409 46.3742C59.5988 47.3184 59.0655 48.2421 58.1688 48.5774L52.0416 50.8689C51.4994 51.0716 51.0716 51.4994 50.8689 52.0416L48.5774 58.1688C48.2421 59.0655 47.3184 59.5988 46.3742 59.4409L39.9221 58.3617C39.3511 58.2662 38.7668 58.4228 38.3201 58.7909L33.272 62.9516C32.5333 63.5605 31.4667 63.5605 30.728 62.9516L25.6799 58.7909C25.2332 58.4228 24.6489 58.2662 24.0779 58.3617L17.6258 59.4409C16.6816 59.5988 15.7579 59.0655 15.4226 58.1688L13.1311 52.0416C12.9284 51.4994 12.5006 51.0716 11.9584 50.8689L5.83116 48.5774C4.9345 48.2421 4.4012 47.3184 4.55912 46.3742L5.63831 39.9221C5.7338 39.3511 5.57724 38.7668 5.20906 38.3201L1.04841 33.272C0.439548 32.5333 0.439548 31.4667 1.04841 30.728L5.20906 25.6799C5.57724 25.2332 5.7338 24.6489 5.63831 24.0779L4.55912 17.6258C4.4012 16.6816 4.9345 15.7579 5.83116 15.4226L11.9584 13.1311C12.5006 12.9284 12.9284 12.5006 13.1311 11.9584L15.4226 5.83116C15.7579 4.9345 16.6816 4.4012 17.6258 4.55912L24.0779 5.63831C24.6489 5.7338 25.2332 5.57724 25.6799 5.20906L30.728 1.04841Z" fill="#00004D"/>
<mask id="mask0_866_395" style="mask-type:luminance" maskUnits="userSpaceOnUse" x="17" y="17" width="29" height="29">
<path d="M29.9354 41.6344C36.3967 41.6344 41.6344 36.3967 41.6344 29.9355C41.6344 23.4742 36.3967 18.2366 29.9354 18.2366C23.4742 18.2366 18.2365 23.4742 18.2365 29.9355C18.2365 36.3967 23.4742 41.6344 29.9354 41.6344Z" fill="white" stroke="white" stroke-width="2" stroke-linejoin="round"/>
<path d="M33.8284 25.3543C33.3176 24.8425 32.7108 24.4366 32.0427 24.1599C31.3746 23.8832 30.6585 23.7412 29.9354 23.7419C29.2123 23.7412 28.4962 23.8832 27.8281 24.1599C27.1601 24.4366 26.5532 24.8425 26.0424 25.3543" stroke="black" stroke-width="2" stroke-linecap="round" stroke-linejoin="round"/>
<path d="M38.3463 38.3464L44.1854 44.1856" stroke="white" stroke-width="2" stroke-linecap="round" stroke-linejoin="round"/>
</mask>
<g mask="url(#mask0_866_395)">
<path d="M15.4838 15.4839H48.5161V48.5161H15.4838V15.4839Z" fill="#1BF266"/>
</g>
</svg>
