<svg width="64" height="64" viewBox="0 0 64 64" fill="none" xmlns="http://www.w3.org/2000/svg">
<path d="M30.728 1.04841C31.4667 0.439548 32.5333 0.439548 33.272 1.04841L38.2153 5.12266C38.662 5.49084 39.2463 5.64741 39.8173 5.55191L46.1354 4.49514C47.0796 4.33721 48.0033 4.87051 48.3386 5.76717L50.5825 11.7672C50.7852 12.3094 51.213 12.7372 51.7552 12.9399L57.7552 15.1838C58.6519 15.5191 59.1852 16.4428 59.0272 17.387L57.9705 23.7051C57.875 24.2761 58.0315 24.8604 58.3997 25.3071L62.474 30.2504C63.0828 30.9891 63.0828 32.0557 62.474 32.7944L58.3997 37.7377C58.0315 38.1844 57.875 38.7687 57.9705 39.3397L59.0272 45.6578C59.1852 46.602 58.6519 47.5257 57.7552 47.861L51.7552 50.1049C51.213 50.3076 50.7852 50.7354 50.5825 51.2776L48.3386 57.2776C48.0033 58.1743 47.0796 58.7076 46.1354 58.5496L39.8173 57.4929C39.2463 57.3974 38.662 57.5539 38.2153 57.9221L33.272 61.9964C32.5333 62.6052 31.4667 62.6052 30.728 61.9964L25.7847 57.9221C25.338 57.5539 24.7537 57.3974 24.1827 57.4929L17.8646 58.5496C16.9204 58.7076 15.9967 58.1743 15.6614 57.2776L13.4175 51.2776C13.2148 50.7354 12.787 50.3076 12.2448 50.1049L6.24477 47.861C5.34811 47.5257 4.81481 46.602 4.97274 45.6578L6.02951 39.3397C6.12501 38.7687 5.96844 38.1844 5.60026 37.7377L1.52601 32.7944C0.917148 32.0557 0.917148 30.9891 1.52601 30.2504L5.60026 25.3071C5.96844 24.8604 6.12501 24.2761 6.02951 23.7051L4.97274 17.387C4.81481 16.4428 5.34811 15.5191 6.24477 15.1838L12.2448 12.9399C12.787 12.7372 13.2148 12.3094 13.4175 11.7672L15.6614 5.76717C15.9967 4.87051 16.9204 4.33721 17.8646 4.49514L24.1827 5.55191C24.7537 5.64741 25.338 5.49084 25.7847 5.12266L30.728 1.04841Z" fill="#00004D"/>
<path d="M43.7467 19.9685L26.5768 26.0994V35.59L27.5909 35.952L26.0629 39.008C25.8891 39.3555 25.792 39.7362 25.7782 40.1245C25.7644 40.5127 25.8341 40.8994 25.9827 41.2584C26.1314 41.6173 26.3554 41.9401 26.6396 42.205C26.9239 42.4698 27.2617 42.6705 27.6303 42.7934L33.1673 44.6386C33.7867 44.8406 34.4579 44.8145 35.0598 44.5652C35.6617 44.3158 36.1546 43.8596 36.4497 43.2788L38.2164 39.7456L43.7467 41.721C43.9512 41.7939 44.1702 41.8167 44.3853 41.7874C44.6005 41.758 44.8054 41.6775 44.9829 41.5524C45.1605 41.4274 45.3053 41.2616 45.4054 41.0689C45.5055 40.8762 45.5578 40.6623 45.558 40.4451V21.2443C45.5578 21.0272 45.5055 20.8132 45.4054 20.6206C45.3053 20.4279 45.1605 20.262 44.9829 20.137C44.8054 20.012 44.6005 19.9314 44.3853 19.9021C44.1702 19.8727 43.9512 19.8955 43.7467 19.9685ZM34.0242 42.0667L28.4885 40.2214L30.1629 36.8713L35.643 38.829L34.0242 42.0667ZM21.1536 35.59H23.8652V26.0994H21.1536C19.6581 26.0994 18.442 27.3156 18.442 28.811V32.8784C18.442 34.3739 19.6581 35.59 21.1536 35.59Z" fill="#1BF266"/>
</svg>
