<svg width="65" height="65" viewBox="0 0 65 65" fill="none" xmlns="http://www.w3.org/2000/svg">
<path d="M31.2033 1.04841C31.942 0.439548 33.0086 0.439548 33.7473 1.04841L38.8221 5.23107C39.2688 5.59925 39.8532 5.75582 40.4241 5.66032L46.9103 4.57542C47.8545 4.4175 48.7782 4.9508 49.1136 5.84746L51.4171 12.0071C51.6199 12.5493 52.0476 12.9771 52.5898 13.1799L58.7495 15.4834C59.6462 15.8188 60.1795 16.7425 60.0216 17.6867L58.9367 24.1729C58.8412 24.7438 58.9977 25.3281 59.3659 25.7749L63.5486 30.8496C64.1574 31.5884 64.1574 32.655 63.5486 33.3937L59.3659 38.4685C58.9977 38.9152 58.8412 39.4995 58.9367 40.0705L60.0216 46.5567C60.1795 47.5009 59.6462 48.4246 58.7495 48.7599L52.5898 51.0635C52.0476 51.2663 51.6199 51.694 51.4171 52.2362L49.1136 58.3959C48.7782 59.2925 47.8545 59.8258 46.9103 59.6679L40.4241 58.583C39.8532 58.4875 39.2688 58.6441 38.8221 59.0123L33.7473 63.1949C33.0086 63.8038 31.942 63.8038 31.2033 63.1949L26.1285 59.0123C25.6818 58.6441 25.0975 58.4875 24.5265 58.583L18.0403 59.6679C17.0961 59.8258 16.1724 59.2925 15.8371 58.3959L13.5335 52.2362C13.3307 51.694 12.903 51.2663 12.3608 51.0635L6.2011 48.7599C5.30444 48.4246 4.77113 47.5009 4.92906 46.5567L6.01396 40.0705C6.10945 39.4995 5.95289 38.9152 5.58471 38.4685L1.40205 33.3937C0.793186 32.655 0.793186 31.5884 1.40205 30.8496L5.58471 25.7749C5.95288 25.3281 6.10945 24.7438 6.01396 24.1729L4.92906 17.6867C4.77114 16.7425 5.30444 15.8188 6.2011 15.4834L12.3608 13.1799C12.903 12.9771 13.3307 12.5493 13.5335 12.0071L15.8371 5.84746C16.1724 4.9508 17.0961 4.4175 18.0403 4.57542L24.5265 5.66032C25.0975 5.75582 25.6818 5.59925 26.1285 5.23107L31.2033 1.04841Z" fill="#00004D"/>
<path d="M43.5279 34.5394C43.5279 34.2646 43.4188 34.0011 43.2244 33.8067C43.0301 33.6124 42.7666 33.5033 42.4917 33.5033H38.347C38.0722 33.5033 37.8086 33.6124 37.6143 33.8067C37.42 34.0011 37.3108 34.2646 37.3108 34.5394V43.8651H35.2385V21.4145C35.2385 20.4087 35.2357 19.7566 35.1721 19.2785C35.1114 18.8295 35.0133 18.6886 34.9345 18.6099C34.8558 18.5311 34.7148 18.433 34.2658 18.3722C33.7864 18.3087 33.1357 18.3059 32.1299 18.3059C31.1241 18.3059 30.472 18.3087 29.994 18.3722C29.545 18.433 29.4041 18.5311 29.3253 18.6099C29.2466 18.6886 29.1485 18.8295 29.0877 19.2785C29.0241 19.7579 29.0214 20.4087 29.0214 21.4145V43.8651H26.949V27.6316C26.949 27.3567 26.8398 27.0932 26.6455 26.8989C26.4512 26.7045 26.1876 26.5954 25.9128 26.5954H21.7681C21.4933 26.5954 21.2297 26.7045 21.0354 26.8989C20.8411 27.0932 20.7319 27.3567 20.7319 27.6316V43.8651H18.3141C18.0393 43.8651 17.7758 43.9743 17.5814 44.1686C17.3871 44.3629 17.278 44.6265 17.278 44.9013C17.278 45.1761 17.3871 45.4396 17.5814 45.634C17.7758 45.8283 18.0393 45.9375 18.3141 45.9375H45.9457C46.2205 45.9375 46.4841 45.8283 46.6784 45.634C46.8727 45.4396 46.9819 45.1761 46.9819 44.9013C46.9819 44.6265 46.8727 44.3629 46.6784 44.1686C46.4841 43.9743 46.2205 43.8651 45.9457 43.8651H43.5279V34.5394Z" fill="#1BF266"/>
</svg>
