<svg width="310" height="157" viewBox="0 0 310 157" fill="none" xmlns="http://www.w3.org/2000/svg">
<mask id="path-1-outside-1_861_229" maskUnits="userSpaceOnUse" x="222.66" y="77.2341" width="35" height="24" fill="black">
<rect fill="white" x="222.66" y="77.2341" width="35" height="24"/>
<path d="M232.706 95.4588C230.183 95.4588 228.213 93.3507 228.213 90.3614C228.213 87.4413 230.131 85.3332 232.74 85.3332C233.811 85.3332 234.814 85.6961 235.591 86.5601V82.4822H239.203V95.2341H235.591V94.2147C234.796 95.0959 233.811 95.4588 232.706 95.4588ZM233.673 92.4695C235.038 92.4695 235.591 91.3118 235.591 90.4133C235.591 89.1692 234.831 88.3398 233.673 88.3398C232.567 88.3398 231.824 89.1692 231.824 90.3787C231.824 91.6401 232.55 92.4695 233.673 92.4695ZM246.059 95.476C242.845 95.476 240.53 93.3162 240.53 90.396C240.53 87.4758 242.862 85.3332 246.076 85.3332C249.29 85.3332 251.623 87.4586 251.623 90.3787C251.623 93.2989 249.29 95.476 246.059 95.476ZM246.076 92.4695C247.182 92.4695 247.977 91.6228 247.977 90.396C247.977 89.1692 247.182 88.3398 246.059 88.3398C244.97 88.3398 244.158 89.1519 244.158 90.3614C244.158 91.6055 244.97 92.4695 246.076 92.4695Z"/>
</mask>
<path d="M232.706 95.4588C230.183 95.4588 228.213 93.3507 228.213 90.3614C228.213 87.4413 230.131 85.3332 232.74 85.3332C233.811 85.3332 234.814 85.6961 235.591 86.5601V82.4822H239.203V95.2341H235.591V94.2147C234.796 95.0959 233.811 95.4588 232.706 95.4588ZM233.673 92.4695C235.038 92.4695 235.591 91.3118 235.591 90.4133C235.591 89.1692 234.831 88.3398 233.673 88.3398C232.567 88.3398 231.824 89.1692 231.824 90.3787C231.824 91.6401 232.55 92.4695 233.673 92.4695ZM246.059 95.476C242.845 95.476 240.53 93.3162 240.53 90.396C240.53 87.4758 242.862 85.3332 246.076 85.3332C249.29 85.3332 251.623 87.4586 251.623 90.3787C251.623 93.2989 249.29 95.476 246.059 95.476ZM246.076 92.4695C247.182 92.4695 247.977 91.6228 247.977 90.396C247.977 89.1692 247.182 88.3398 246.059 88.3398C244.97 88.3398 244.158 89.1519 244.158 90.3614C244.158 91.6055 244.97 92.4695 246.076 92.4695Z" fill="#1BF266"/>
<path d="M235.591 86.5601L231.774 89.996C233.196 91.5767 235.446 92.1172 237.431 91.3553C239.417 90.5934 240.727 88.6867 240.727 86.5601H235.591ZM235.591 82.4822V77.346C232.755 77.346 230.455 79.6456 230.455 82.4822H235.591ZM239.203 82.4822H244.339C244.339 79.6456 242.039 77.346 239.203 77.346V82.4822ZM239.203 95.2341V100.37C242.039 100.37 244.339 98.0708 244.339 95.2341H239.203ZM235.591 95.2341H230.455C230.455 98.0708 232.755 100.37 235.591 100.37V95.2341ZM235.591 94.2147H240.727C240.727 92.089 239.418 90.183 237.434 89.4204C235.45 88.6578 233.201 89.1962 231.777 90.7746L235.591 94.2147ZM232.706 95.4588V90.3226C232.8 90.3226 232.926 90.3442 233.059 90.404C233.188 90.4627 233.281 90.5388 233.337 90.6017C233.459 90.7377 233.349 90.723 233.349 90.3614H228.213H223.077C223.077 95.6474 226.835 100.595 232.706 100.595V95.4588ZM228.213 90.3614H233.349C233.349 90.0274 233.45 90.04 233.31 90.1948C233.244 90.2677 233.146 90.3451 233.02 90.4009C232.893 90.4576 232.789 90.4694 232.74 90.4694V85.3332V80.197C226.815 80.197 223.077 85.1094 223.077 90.3614H228.213ZM232.74 85.3332V90.4694C232.695 90.4694 232.536 90.4609 232.317 90.3707C232.085 90.2749 231.896 90.1317 231.774 89.996L235.591 86.5601L239.409 83.1241C237.523 81.0283 235.053 80.197 232.74 80.197V85.3332ZM235.591 86.5601H240.727V82.4822H235.591H230.455V86.5601H235.591ZM235.591 82.4822V87.6184H239.203V82.4822V77.346H235.591V82.4822ZM239.203 82.4822H234.066V95.2341H239.203H244.339V82.4822H239.203ZM239.203 95.2341V90.0979H235.591V95.2341V100.37H239.203V95.2341ZM235.591 95.2341H240.727V94.2147H235.591H230.455V95.2341H235.591ZM235.591 94.2147L231.777 90.7746C231.869 90.6727 232.047 90.5268 232.296 90.4236C232.53 90.3262 232.693 90.3226 232.706 90.3226V95.4588V100.595C235.074 100.595 237.515 99.7506 239.405 97.6547L235.591 94.2147ZM233.673 92.4695V97.6057C236.013 97.6057 237.973 96.5253 239.216 94.9089C240.324 93.4674 240.727 91.8016 240.727 90.4133H235.591H230.455C230.455 89.9235 230.582 89.2858 231.072 88.6478C231.343 88.2961 231.73 87.9428 232.242 87.6857C232.761 87.4247 233.268 87.3333 233.673 87.3333V92.4695ZM235.591 90.4133H240.727C240.727 88.7508 240.207 86.9079 238.841 85.4272C237.439 83.9069 235.539 83.2036 233.673 83.2036V88.3398V93.476C232.965 93.476 232.024 93.1874 231.291 92.3929C230.595 91.6379 230.455 90.8317 230.455 90.4133H235.591ZM233.673 88.3398V83.2036C231.763 83.2036 229.883 83.9573 228.523 85.4621C227.204 86.9219 226.688 88.7307 226.688 90.3787H231.824H236.961C236.961 90.8173 236.816 91.6065 236.145 92.3492C235.433 93.137 234.478 93.476 233.673 93.476V88.3398ZM231.824 90.3787H226.688C226.688 91.9709 227.153 93.7943 228.475 95.2938C229.854 96.8583 231.767 97.6057 233.673 97.6057V92.4695V87.3333C234.457 87.3333 235.445 87.666 236.18 88.5004C236.859 89.2699 236.961 90.0479 236.961 90.3787H231.824ZM246.059 95.476V90.3398C245.832 90.3398 245.692 90.3021 245.625 90.2772C245.558 90.2524 245.55 90.236 245.572 90.2567C245.596 90.2786 245.628 90.3184 245.65 90.3692C245.673 90.4214 245.666 90.4395 245.666 90.396H240.53H235.393C235.393 96.533 240.404 100.612 246.059 100.612V95.476ZM240.53 90.396H245.666C245.666 90.3582 245.671 90.3827 245.646 90.4405C245.621 90.4967 245.587 90.5384 245.564 90.5599C245.506 90.6129 245.616 90.4694 246.076 90.4694V85.3332V80.197C240.467 80.197 235.393 84.2166 235.393 90.396H240.53ZM246.076 85.3332V90.4694C246.548 90.4694 246.659 90.6158 246.598 90.5595C246.572 90.536 246.535 90.491 246.508 90.4305C246.481 90.3685 246.486 90.3411 246.486 90.3787H251.623H256.759C256.759 84.1772 251.661 80.197 246.076 80.197V85.3332ZM251.623 90.3787H246.486C246.486 90.417 246.481 90.3975 246.503 90.347C246.524 90.2982 246.553 90.2624 246.572 90.2449C246.59 90.2285 246.577 90.248 246.505 90.2748C246.432 90.3016 246.289 90.3398 246.059 90.3398V95.476V100.612C251.722 100.612 256.759 96.5242 256.759 90.3787H251.623ZM246.076 92.4695V97.6057C248.003 97.6057 249.866 96.8382 251.215 95.3766C252.54 93.9409 253.113 92.1246 253.113 90.396H247.977H242.841C242.841 89.8942 243.016 89.1146 243.667 88.409C244.342 87.6775 245.255 87.3333 246.076 87.3333V92.4695ZM247.977 90.396H253.113C253.113 88.6635 252.537 86.8318 251.181 85.3898C249.805 83.9264 247.938 83.2036 246.059 83.2036V88.3398V93.476C245.302 93.476 244.394 93.1678 243.697 92.4259C243.019 91.7053 242.841 90.9017 242.841 90.396H247.977ZM246.059 88.3398V83.2036C244.193 83.2036 242.352 83.9228 240.99 85.3452C239.636 86.7601 239.022 88.5856 239.022 90.3614H244.158H249.294C249.294 90.9277 249.087 91.7424 248.41 92.4488C247.727 93.1628 246.836 93.476 246.059 93.476V88.3398ZM244.158 90.3614H239.022C239.022 94.023 241.732 97.6057 246.076 97.6057V92.4695V87.3333C246.925 87.3333 247.829 87.6937 248.485 88.4074C249.118 89.097 249.294 89.8593 249.294 90.3614H244.158Z" fill="#00004D" mask="url(#path-1-outside-1_861_229)"/>
<mask id="path-3-outside-2_861_229" maskUnits="userSpaceOnUse" x="128.226" y="15.1226" width="175" height="67" fill="black">
<rect fill="white" x="128.226" y="15.1226" width="175" height="67"/>
<path d="M169.709 53.7261V48.3387H184.256L184.179 70.2734C177.483 74.2755 169.709 76.8923 162.167 76.8923C146.235 76.8923 134.306 65.8864 134.306 49.2622C134.306 32.3302 146.928 21.4783 162.552 21.4783C169.632 21.4783 175.943 23.2484 182.408 27.4815L179.946 32.1762C174.25 28.5589 168.786 26.9427 162.706 26.9427C150.084 26.9427 140.54 35.5627 140.54 49.2622C140.54 63.3466 149.776 71.3509 162.244 71.3509C168.863 71.3509 173.327 69.7346 178.175 67.0409V53.7261H169.709ZM227.53 58.7288V34.4852H233.226V76.1226H227.53V67.6566C224.683 73.121 219.295 76.8153 211.599 76.8153C201.593 76.8153 194.975 70.0425 194.975 59.0366V34.4852H200.747V58.267C200.747 66.5791 205.134 71.5048 212.907 71.5048C219.911 71.5048 225.606 66.81 227.53 58.7288ZM252.103 29.2516H246.023V20.7856H252.103V29.2516ZM251.872 76.1226H246.177V34.4852H251.872V76.1226ZM279.516 33.7925C291.292 33.7925 297.295 39.7957 297.295 50.2628V76.1226H291.523V67.8875C289.291 72.1975 283.749 76.8923 275.514 76.8923C266.586 76.8923 261.122 71.6587 261.122 64.1163C261.122 56.5738 266.125 51.1863 277.054 51.1863C282.364 51.1863 287.213 51.5711 291.523 52.0329V50.0319C291.523 42.6433 287.136 39.026 278.978 39.026C274.206 39.026 269.434 40.1035 265.509 41.7967L264.662 36.4862C269.28 34.793 274.514 33.7925 279.516 33.7925ZM277.284 71.5818C286.52 71.5818 291.523 64.5011 291.523 57.8822V56.6508C287.598 56.035 283.672 55.7272 278.747 55.7272C270.204 55.7272 266.663 58.7288 266.663 63.8084C266.663 68.8111 270.512 71.5818 277.284 71.5818Z"/>
</mask>
<path d="M169.709 53.7261V48.3387H184.256L184.179 70.2734C177.483 74.2755 169.709 76.8923 162.167 76.8923C146.235 76.8923 134.306 65.8864 134.306 49.2622C134.306 32.3302 146.928 21.4783 162.552 21.4783C169.632 21.4783 175.943 23.2484 182.408 27.4815L179.946 32.1762C174.25 28.5589 168.786 26.9427 162.706 26.9427C150.084 26.9427 140.54 35.5627 140.54 49.2622C140.54 63.3466 149.776 71.3509 162.244 71.3509C168.863 71.3509 173.327 69.7346 178.175 67.0409V53.7261H169.709ZM227.53 58.7288V34.4852H233.226V76.1226H227.53V67.6566C224.683 73.121 219.295 76.8153 211.599 76.8153C201.593 76.8153 194.975 70.0425 194.975 59.0366V34.4852H200.747V58.267C200.747 66.5791 205.134 71.5048 212.907 71.5048C219.911 71.5048 225.606 66.81 227.53 58.7288ZM252.103 29.2516H246.023V20.7856H252.103V29.2516ZM251.872 76.1226H246.177V34.4852H251.872V76.1226ZM279.516 33.7925C291.292 33.7925 297.295 39.7957 297.295 50.2628V76.1226H291.523V67.8875C289.291 72.1975 283.749 76.8923 275.514 76.8923C266.586 76.8923 261.122 71.6587 261.122 64.1163C261.122 56.5738 266.125 51.1863 277.054 51.1863C282.364 51.1863 287.213 51.5711 291.523 52.0329V50.0319C291.523 42.6433 287.136 39.026 278.978 39.026C274.206 39.026 269.434 40.1035 265.509 41.7967L264.662 36.4862C269.28 34.793 274.514 33.7925 279.516 33.7925ZM277.284 71.5818C286.52 71.5818 291.523 64.5011 291.523 57.8822V56.6508C287.598 56.035 283.672 55.7272 278.747 55.7272C270.204 55.7272 266.663 58.7288 266.663 63.8084C266.663 68.8111 270.512 71.5818 277.284 71.5818Z" fill="url(#paint0_linear_861_229)"/>
<path d="M169.709 53.7261H164.573C164.573 56.5628 166.873 58.8623 169.709 58.8623V53.7261ZM169.709 48.3387V43.2025C166.873 43.2025 164.573 45.502 164.573 48.3387H169.709ZM184.256 48.3387L189.392 48.3567C189.397 46.9914 188.857 45.6803 187.894 44.7132C186.93 43.7461 185.621 43.2025 184.256 43.2025V48.3387ZM184.179 70.2734L186.814 74.6821C188.359 73.7582 189.308 72.0922 189.315 70.2914L184.179 70.2734ZM182.408 27.4815L186.957 29.8675C188.185 27.5254 187.435 24.6332 185.222 23.1844L182.408 27.4815ZM179.946 32.1762L177.192 36.5119C178.404 37.2818 179.883 37.509 181.27 37.1386C182.658 36.7682 183.827 35.8339 184.494 34.5623L179.946 32.1762ZM178.175 67.0409L180.67 71.5307C182.3 70.6249 183.312 68.9062 183.312 67.0409H178.175ZM178.175 53.7261H183.312C183.312 50.8895 181.012 48.5899 178.175 48.5899V53.7261ZM169.709 53.7261H174.846V48.3387H169.709H164.573V53.7261H169.709ZM169.709 48.3387V53.4749H184.256V48.3387V43.2025H169.709V48.3387ZM184.256 48.3387L179.119 48.3206L179.042 70.2553L184.179 70.2734L189.315 70.2914L189.392 48.3567L184.256 48.3387ZM184.179 70.2734L181.543 65.8646C175.442 69.5113 168.572 71.7561 162.167 71.7561V76.8923V82.0285C170.847 82.0285 179.523 79.0397 186.814 74.6821L184.179 70.2734ZM162.167 76.8923V71.7561C155.399 71.7561 149.761 69.4334 145.84 65.6264C141.939 61.8383 139.442 56.2962 139.442 49.2622H134.306H129.17C129.17 58.8525 132.638 67.1253 138.684 72.9962C144.711 78.8482 153.003 82.0285 162.167 82.0285V76.8923ZM134.306 49.2622H139.442C139.442 35.4348 149.489 26.6145 162.552 26.6145V21.4783V16.3421C144.367 16.3421 129.17 29.2256 129.17 49.2622H134.306ZM162.552 21.4783V26.6145C168.641 26.6145 173.973 28.0973 179.595 31.7785L182.408 27.4815L185.222 23.1844C177.914 18.3996 170.624 16.3421 162.552 16.3421V21.4783ZM182.408 27.4815L177.86 25.0954L175.397 29.7902L179.946 32.1762L184.494 34.5623L186.957 29.8675L182.408 27.4815ZM179.946 32.1762L182.699 27.8406C176.242 23.7397 169.832 21.8065 162.706 21.8065V26.9427V32.0789C167.74 32.0789 172.258 33.3782 177.192 36.5119L179.946 32.1762ZM162.706 26.9427V21.8065C155.213 21.8065 148.333 24.3803 143.303 29.2889C138.25 34.2191 135.404 41.1723 135.404 49.2622H140.54H145.676C145.676 43.6526 147.602 39.4461 150.477 36.6413C153.373 33.815 157.577 32.0789 162.706 32.0789V26.9427ZM140.54 49.2622H135.404C135.404 57.4669 138.124 64.3954 143.135 69.2701C148.119 74.1175 154.91 76.4871 162.244 76.4871V71.3509V66.2147C157.11 66.2147 153.049 64.5821 150.298 61.9063C147.574 59.2578 145.676 55.142 145.676 49.2622H140.54ZM162.244 71.3509V76.4871C169.931 76.4871 175.249 74.5423 180.67 71.5307L178.175 67.0409L175.681 62.551C171.404 64.9269 167.795 66.2147 162.244 66.2147V71.3509ZM178.175 67.0409H183.312V53.7261H178.175H173.039V67.0409H178.175ZM178.175 53.7261V48.5899H169.709V53.7261V58.8623H178.175V53.7261ZM227.53 58.7288L232.527 59.9184C232.62 59.5287 232.666 59.1294 232.666 58.7288H227.53ZM227.53 34.4852V29.349C224.694 29.349 222.394 31.6485 222.394 34.4852H227.53ZM233.226 34.4852H238.362C238.362 31.6485 236.062 29.349 233.226 29.349V34.4852ZM233.226 76.1226V81.2588C236.062 81.2588 238.362 78.9593 238.362 76.1226H233.226ZM227.53 76.1226H222.394C222.394 78.9593 224.694 81.2588 227.53 81.2588V76.1226ZM227.53 67.6566H232.666C232.666 65.2906 231.05 63.2307 228.752 62.6679C226.454 62.105 224.069 63.1848 222.975 65.283L227.53 67.6566ZM194.975 34.4852V29.349C192.138 29.349 189.838 31.6485 189.838 34.4852H194.975ZM200.747 34.4852H205.883C205.883 31.6485 203.584 29.349 200.747 29.349V34.4852ZM227.53 58.7288H232.666V34.4852H227.53H222.394V58.7288H227.53ZM227.53 34.4852V39.6214H233.226V34.4852V29.349H227.53V34.4852ZM233.226 34.4852H228.089V76.1226H233.226H238.362V34.4852H233.226ZM233.226 76.1226V70.9864H227.53V76.1226V81.2588H233.226V76.1226ZM227.53 76.1226H232.666V67.6566H227.53H222.394V76.1226H227.53ZM227.53 67.6566L222.975 65.283C221.022 69.0308 217.402 71.6791 211.599 71.6791V76.8153V81.9515C221.188 81.9515 228.343 77.2113 232.085 70.0302L227.53 67.6566ZM211.599 76.8153V71.6791C207.795 71.6791 205.063 70.4216 203.265 68.5221C201.441 66.5962 200.111 63.5119 200.111 59.0366H194.975H189.838C189.838 65.5672 191.817 71.3722 195.805 75.5843C199.817 79.8225 205.398 81.9515 211.599 81.9515V76.8153ZM194.975 59.0366H200.111V34.4852H194.975H189.838V59.0366H194.975ZM194.975 34.4852V39.6214H200.747V34.4852V29.349H194.975V34.4852ZM200.747 34.4852H195.611V58.267H200.747H205.883V34.4852H200.747ZM200.747 58.267H195.611C195.611 63.2814 196.938 67.9746 200.115 71.4619C203.355 75.0183 207.898 76.641 212.907 76.641V71.5048V66.3686C210.142 66.3686 208.606 65.5284 207.709 64.5439C206.749 63.4904 205.883 61.5647 205.883 58.267H200.747ZM212.907 71.5048V76.641C222.643 76.641 230.138 69.9505 232.527 59.9184L227.53 58.7288L222.534 57.5391C221.074 63.6695 217.179 66.3686 212.907 66.3686V71.5048ZM252.103 29.2516V34.3878C254.939 34.3878 257.239 32.0883 257.239 29.2516H252.103ZM246.023 29.2516H240.886C240.886 32.0883 243.186 34.3878 246.023 34.3878V29.2516ZM246.023 20.7856V15.6494C243.186 15.6494 240.886 17.9489 240.886 20.7856H246.023ZM252.103 20.7856H257.239C257.239 17.9489 254.939 15.6494 252.103 15.6494V20.7856ZM251.872 76.1226V81.2588C254.709 81.2588 257.008 78.9593 257.008 76.1226H251.872ZM246.177 76.1226H241.04C241.04 78.9593 243.34 81.2588 246.177 81.2588V76.1226ZM246.177 34.4852V29.349C243.34 29.349 241.04 31.6485 241.04 34.4852H246.177ZM251.872 34.4852H257.008C257.008 31.6485 254.709 29.349 251.872 29.349V34.4852ZM252.103 29.2516V24.1154H246.023V29.2516V34.3878H252.103V29.2516ZM246.023 29.2516H251.159V20.7856H246.023H240.886V29.2516H246.023ZM246.023 20.7856V25.9218H252.103V20.7856V15.6494H246.023V20.7856ZM252.103 20.7856H246.967V29.2516H252.103H257.239V20.7856H252.103ZM251.872 76.1226V70.9864H246.177V76.1226V81.2588H251.872V76.1226ZM246.177 76.1226H251.313V34.4852H246.177H241.04V76.1226H246.177ZM246.177 34.4852V39.6214H251.872V34.4852V29.349H246.177V34.4852ZM251.872 34.4852H246.736V76.1226H251.872H257.008V34.4852H251.872ZM297.295 76.1226V81.2588C300.132 81.2588 302.431 78.9593 302.431 76.1226H297.295ZM291.523 76.1226H286.387C286.387 78.9593 288.686 81.2588 291.523 81.2588V76.1226ZM291.523 67.8875H296.659C296.659 65.519 295.039 63.4577 292.738 62.8972C290.437 62.3367 288.051 63.4224 286.962 65.5256L291.523 67.8875ZM291.523 52.0329L290.976 57.1399C292.425 57.2952 293.872 56.8275 294.956 55.8533C296.04 54.8792 296.659 53.4904 296.659 52.0329H291.523ZM265.509 41.7967L260.437 42.6053C260.686 44.171 261.645 45.5336 263.034 46.2975C264.423 47.0613 266.088 47.1408 267.543 46.5129L265.509 41.7967ZM264.662 36.4862L262.894 31.664C260.588 32.5095 259.204 34.8693 259.59 37.2948L264.662 36.4862ZM291.523 56.6508H296.659C296.659 54.1214 294.817 51.9686 292.319 51.5766L291.523 56.6508ZM279.516 33.7925V38.9287C284.586 38.9287 287.581 40.2174 289.294 41.8356C290.961 43.4106 292.159 46.005 292.159 50.2628H297.295H302.431C302.431 44.0534 300.628 38.4127 296.349 34.3694C292.116 30.3691 286.222 28.6563 279.516 28.6563V33.7925ZM297.295 50.2628H292.159V76.1226H297.295H302.431V50.2628H297.295ZM297.295 76.1226V70.9864H291.523V76.1226V81.2588H297.295V76.1226ZM291.523 76.1226H296.659V67.8875H291.523H286.387V76.1226H291.523ZM291.523 67.8875L286.962 65.5256C285.538 68.2744 281.674 71.7561 275.514 71.7561V76.8923V82.0285C285.825 82.0285 293.043 76.1205 296.084 70.2494L291.523 67.8875ZM275.514 76.8923V71.7561C272.043 71.7561 269.767 70.7495 268.421 69.5282C267.117 68.3456 266.258 66.5861 266.258 64.1163H261.122H255.986C255.986 69.1889 257.859 73.8173 261.52 77.1372C265.137 80.4182 270.058 82.0285 275.514 82.0285V76.8923ZM261.122 64.1163H266.258C266.258 61.5278 267.076 59.822 268.372 58.6883C269.756 57.4768 272.374 56.3225 277.054 56.3225V51.1863V46.0501C270.804 46.0501 265.456 47.5896 261.607 50.9575C257.669 54.4031 255.986 59.1623 255.986 64.1163H261.122ZM277.054 51.1863V56.3225C282.117 56.3225 286.77 56.6894 290.976 57.1399L291.523 52.0329L292.07 46.926C287.655 46.4529 282.611 46.0501 277.054 46.0501V51.1863ZM291.523 52.0329H296.659V50.0319H291.523H286.387V52.0329H291.523ZM291.523 50.0319H296.659C296.659 45.297 295.215 40.9357 291.667 37.8711C288.256 34.9257 283.709 33.8898 278.978 33.8898V39.026V44.1622C282.404 44.1622 284.13 44.935 284.952 45.6455C285.637 46.2366 286.387 47.3782 286.387 50.0319H291.523ZM278.978 39.026V33.8898C273.476 33.8898 268.014 35.1223 263.475 37.0806L265.509 41.7967L267.543 46.5129C270.854 45.0848 274.935 44.1622 278.978 44.1622V39.026ZM265.509 41.7967L270.581 40.9881L269.734 35.6776L264.662 36.4862L259.59 37.2948L260.437 42.6053L265.509 41.7967ZM264.662 36.4862L266.43 41.3085C270.523 39.808 275.159 38.9287 279.516 38.9287V33.7925V28.6563C273.868 28.6563 268.038 29.7781 262.894 31.664L264.662 36.4862ZM277.284 71.5818V76.718C289.722 76.718 296.659 66.9583 296.659 57.8822H291.523H286.387C286.387 62.0438 283.318 66.4455 277.284 66.4455V71.5818ZM291.523 57.8822H296.659V56.6508H291.523H286.387V57.8822H291.523ZM291.523 56.6508L292.319 51.5766C288.102 50.9152 283.909 50.591 278.747 50.591V55.7272V60.8634C283.436 60.8634 287.093 61.1549 290.727 61.7249L291.523 56.6508ZM278.747 55.7272V50.591C274.034 50.591 269.749 51.3898 266.53 53.6737C262.979 56.1923 261.527 59.9215 261.527 63.8084H266.663H271.8C271.8 62.6157 272.118 62.3042 272.473 62.0522C273.159 61.5654 274.917 60.8634 278.747 60.8634V55.7272ZM266.663 63.8084H261.527C261.527 67.7991 263.155 71.351 266.409 73.722C269.428 75.9216 273.308 76.718 277.284 76.718V71.5818V66.4455C274.488 66.4455 273.058 65.8566 272.459 65.4201C272.095 65.1551 271.8 64.8204 271.8 63.8084H266.663Z" fill="#00004D" mask="url(#path-3-outside-2_861_229)"/>
<path d="M102.955 85.9797L94.0603 91.7118L107.699 105.548C112.64 111.28 101.373 120.373 96.8275 115.826L83.3867 101.595L75.2828 111.28C72.9109 114.442 71.1319 113.454 70.1436 109.303L57.0982 61.4701C56.307 58.9007 57.6906 56.9247 61.4467 58.9005L104.734 80.2476C107.303 81.8289 106.315 84.0031 102.955 85.9797Z" fill="white" stroke="#00004D" stroke-width="5.13621" stroke-linejoin="round"/>
<path d="M64.986 149.81L83.9612 122.138L87.5191 117.592L81.788 112.057L79.6128 114.824C73.7021 122.206 67.9509 121.545 64.986 114.824L57.8704 91.5007C37.9079 87.7452 27.0367 75.2927 29.0122 54.4202C32.3735 32.2032 55.6289 25.3892 70.1262 30.4243C80.9974 34.2 93.4499 47.6205 90.0886 65.0145L112.029 77.2693C118.552 59.0847 114.402 38.8155 105.901 27.0641C92.4616 8.48421 76.8466 2.75212 56.2891 2.75212C48.5814 2.75212 40.7525 5.0258 31.5828 9.4725C22.5454 14.895 18.4372 18.7706 12.6066 27.0641C0.352742 48.2903 -0.745392 67.1887 12.6066 90.3147L53.5219 149.81C58.3353 155.715 60.9262 155.739 64.986 149.81Z" fill="#1BF266" stroke="#00004D" stroke-width="5.13621" stroke-linejoin="round"/>
<rect x="59.5519" y="38.6271" width="2.96487" height="11.2665" rx="1.48244" fill="#1BF266" stroke="#00004D" stroke-width="2.96487" stroke-linejoin="round"/>
<rect x="48.2853" y="62.3461" width="2.96487" height="11.2665" rx="1.48244" transform="rotate(90 48.2853 62.3461)" fill="#1BF266" stroke="#00004D" stroke-width="2.96487" stroke-linejoin="round"/>
<rect x="0.16445" y="2.09002" width="2.96487" height="11.2665" rx="1.48244" transform="matrix(-0.649462 0.760394 0.760394 0.649462 41.2322 42.1007)" fill="#1BF266" stroke="#00004D" stroke-width="2.96487" stroke-linejoin="round"/>
<mask id="path-10-outside-3_861_229" maskUnits="userSpaceOnUse" x="120.692" y="83.489" width="190" height="65" fill="black">
<rect fill="white" x="120.692" y="83.489" width="190" height="65"/>
<path d="M153.967 142.472C137.881 142.472 126.291 132.428 126.291 116.904C126.291 101.239 137.67 91.3351 153.686 91.3351C160.219 91.3351 166.47 93.3019 172.511 97.4463L166.119 108.685C162.115 105.805 158.322 104.33 154.178 104.33C147.013 104.33 141.815 109.036 141.815 116.904C141.815 124.701 147.083 129.407 154.248 129.407C158.252 129.407 162.185 128.002 166.26 125.122L172.652 136.361C166.681 140.576 160.429 142.472 153.967 142.472ZM192.782 141.489H178.102V89.6493H192.782V141.489ZM214.601 99.1321H199.499V89.3683H214.601V99.1321ZM214.391 141.489H199.71V102.223H214.391V141.489ZM241.548 142.332C229.536 142.332 219.843 134.535 219.843 121.821C219.843 109.107 230.168 101.239 241.548 101.239C247.308 101.239 252.365 102.644 257.212 106.297L251.312 116.553C248.221 114.234 245.903 113.392 242.883 113.392C238.246 113.392 234.664 116.342 234.664 121.821C234.664 127.37 238.176 130.32 242.953 130.32C245.763 130.32 248.642 129.337 251.452 127.44L257.212 137.415C251.663 141.278 247.378 142.332 241.548 142.332ZM287.093 102.223H304.583L288.778 121.751L304.583 141.489H287.233L275.854 126.246V141.489H261.173V89.6493H275.854V117.255L287.093 102.223Z"/>
</mask>
<path d="M153.967 142.472C137.881 142.472 126.291 132.428 126.291 116.904C126.291 101.239 137.67 91.3351 153.686 91.3351C160.219 91.3351 166.47 93.3019 172.511 97.4463L166.119 108.685C162.115 105.805 158.322 104.33 154.178 104.33C147.013 104.33 141.815 109.036 141.815 116.904C141.815 124.701 147.083 129.407 154.248 129.407C158.252 129.407 162.185 128.002 166.26 125.122L172.652 136.361C166.681 140.576 160.429 142.472 153.967 142.472ZM192.782 141.489H178.102V89.6493H192.782V141.489ZM214.601 99.1321H199.499V89.3683H214.601V99.1321ZM214.391 141.489H199.71V102.223H214.391V141.489ZM241.548 142.332C229.536 142.332 219.843 134.535 219.843 121.821C219.843 109.107 230.168 101.239 241.548 101.239C247.308 101.239 252.365 102.644 257.212 106.297L251.312 116.553C248.221 114.234 245.903 113.392 242.883 113.392C238.246 113.392 234.664 116.342 234.664 121.821C234.664 127.37 238.176 130.32 242.953 130.32C245.763 130.32 248.642 129.337 251.452 127.44L257.212 137.415C251.663 141.278 247.378 142.332 241.548 142.332ZM287.093 102.223H304.583L288.778 121.751L304.583 141.489H287.233L275.854 126.246V141.489H261.173V89.6493H275.854V117.255L287.093 102.223Z" fill="url(#paint1_linear_861_229)"/>
<path d="M172.511 97.4463L176.976 99.9855C178.295 97.6653 177.618 94.721 175.417 93.211L172.511 97.4463ZM166.119 108.685L163.12 112.855C164.303 113.706 165.791 114.014 167.215 113.703C168.639 113.392 169.863 112.491 170.584 111.224L166.119 108.685ZM166.26 125.122L170.724 122.583C170.007 121.323 168.791 120.424 167.376 120.109C165.961 119.794 164.479 120.091 163.295 120.928L166.26 125.122ZM172.652 136.361L175.614 140.557C177.773 139.033 178.423 136.119 177.116 133.822L172.652 136.361ZM153.967 142.472V137.336C146.984 137.336 141.362 135.165 137.547 131.705C133.781 128.289 131.427 123.312 131.427 116.904H126.291H121.155C121.155 126.02 124.596 133.827 130.646 139.314C136.648 144.758 144.864 147.609 153.967 147.609V142.472ZM126.291 116.904H131.427C131.427 110.385 133.757 105.413 137.45 102.035C141.19 98.6131 146.727 96.4713 153.686 96.4713V91.3351V86.1989C144.629 86.1989 136.469 89.0092 130.516 94.4557C124.515 99.9459 121.155 107.758 121.155 116.904H126.291ZM153.686 91.3351V96.4713C159.104 96.4713 164.354 98.0787 169.606 101.682L172.511 97.4463L175.417 93.211C168.587 88.5251 161.333 86.1989 153.686 86.1989V91.3351ZM172.511 97.4463L168.047 94.907L161.654 106.146L166.119 108.685L170.584 111.224L176.976 99.9855L172.511 97.4463ZM166.119 108.685L169.118 104.516C164.509 101.2 159.687 99.1939 154.178 99.1939V104.33V109.466C156.957 109.466 159.721 110.41 163.12 112.855L166.119 108.685ZM154.178 104.33V99.1939C149.46 99.1939 145.004 100.761 141.707 104.006C138.391 107.269 136.679 111.803 136.679 116.904H141.815H146.951C146.951 114.138 147.838 112.385 148.912 111.328C150.005 110.253 151.73 109.466 154.178 109.466V104.33ZM141.815 116.904H136.679C136.679 122.003 138.43 126.521 141.764 129.762C145.073 132.979 149.534 134.543 154.248 134.543V129.407V124.271C151.797 124.271 150.041 123.482 148.925 122.397C147.833 121.335 146.951 119.602 146.951 116.904H141.815ZM154.248 129.407V134.543C159.552 134.543 164.5 132.656 169.224 129.316L166.26 125.122L163.295 120.928C159.871 123.349 156.952 124.271 154.248 124.271V129.407ZM166.26 125.122L161.795 127.661L168.187 138.9L172.652 136.361L177.116 133.822L170.724 122.583L166.26 125.122ZM172.652 136.361L169.69 132.165C164.566 135.782 159.344 137.336 153.967 137.336V142.472V147.609C161.514 147.609 168.796 145.369 175.614 140.557L172.652 136.361ZM192.782 141.489V146.625C195.619 146.625 197.919 144.326 197.919 141.489H192.782ZM178.102 141.489H172.965C172.965 144.326 175.265 146.625 178.102 146.625V141.489ZM178.102 89.6493V84.5131C175.265 84.5131 172.965 86.8126 172.965 89.6493H178.102ZM192.782 89.6493H197.919C197.919 86.8126 195.619 84.5131 192.782 84.5131V89.6493ZM192.782 141.489V136.353H178.102V141.489V146.625H192.782V141.489ZM178.102 141.489H183.238V89.6493H178.102H172.965V141.489H178.102ZM178.102 89.6493V94.7855H192.782V89.6493V84.5131H178.102V89.6493ZM192.782 89.6493H187.646V141.489H192.782H197.919V89.6493H192.782ZM214.601 99.1321V104.268C217.438 104.268 219.738 101.969 219.738 99.1321H214.601ZM199.499 99.1321H194.363C194.363 101.969 196.662 104.268 199.499 104.268V99.1321ZM199.499 89.3683V84.2321C196.662 84.2321 194.363 86.5316 194.363 89.3683H199.499ZM214.601 89.3683H219.738C219.738 86.5316 217.438 84.2321 214.601 84.2321V89.3683ZM214.391 141.489V146.625C217.227 146.625 219.527 144.326 219.527 141.489H214.391ZM199.71 141.489H194.573C194.573 144.326 196.873 146.625 199.71 146.625V141.489ZM199.71 102.223V97.0866C196.873 97.0866 194.573 99.3862 194.573 102.223H199.71ZM214.391 102.223H219.527C219.527 99.3862 217.227 97.0866 214.391 97.0866V102.223ZM214.601 99.1321V93.9959H199.499V99.1321V104.268H214.601V99.1321ZM199.499 99.1321H204.635V89.3683H199.499H194.363V99.1321H199.499ZM199.499 89.3683V94.5045H214.601V89.3683V84.2321H199.499V89.3683ZM214.601 89.3683H209.465V99.1321H214.601H219.738V89.3683H214.601ZM214.391 141.489V136.353H199.71V141.489V146.625H214.391V141.489ZM199.71 141.489H204.846V102.223H199.71H194.573V141.489H199.71ZM199.71 102.223V107.359H214.391V102.223V97.0866H199.71V102.223ZM214.391 102.223H209.254V141.489H214.391H219.527V102.223H214.391ZM257.212 106.297L261.664 108.858C262.957 106.612 262.373 103.755 260.303 102.195L257.212 106.297ZM251.312 116.553L248.23 120.661C249.406 121.544 250.905 121.88 252.345 121.584C253.786 121.288 255.03 120.389 255.764 119.114L251.312 116.553ZM251.452 127.44L255.9 124.872C255.188 123.638 253.995 122.756 252.607 122.435C251.218 122.115 249.759 122.386 248.579 123.183L251.452 127.44ZM257.212 137.415L260.147 141.63C262.337 140.105 262.995 137.157 261.66 134.846L257.212 137.415ZM241.548 142.332V137.196C236.637 137.196 232.489 135.607 229.63 133.029C226.83 130.505 224.979 126.784 224.979 121.821H219.843H214.706C214.706 129.572 217.702 136.107 222.752 140.659C227.743 145.159 234.447 147.468 241.548 147.468V142.332ZM219.843 121.821H224.979C224.979 112.499 232.415 106.376 241.548 106.376V101.239V96.1032C227.921 96.1032 214.706 105.714 214.706 121.821H219.843ZM241.548 101.239V106.376C246.346 106.376 250.28 107.504 254.121 110.399L257.212 106.297L260.303 102.195C254.451 97.7844 248.27 96.1032 241.548 96.1032V101.239ZM257.212 106.297L252.76 103.736L246.86 113.991L251.312 116.553L255.764 119.114L261.664 108.858L257.212 106.297ZM251.312 116.553L254.393 112.444C250.626 109.618 247.253 108.255 242.883 108.255V113.392V118.528C244.553 118.528 245.817 118.851 248.23 120.661L251.312 116.553ZM242.883 113.392V108.255C239.482 108.255 236.066 109.35 233.47 111.854C230.836 114.394 229.528 117.918 229.528 121.821H234.664H239.8C239.8 120.245 240.284 119.554 240.6 119.249C240.954 118.908 241.647 118.528 242.883 118.528V113.392ZM234.664 121.821H229.528C229.528 125.712 230.788 129.264 233.441 131.838C236.061 134.38 239.515 135.456 242.953 135.456V130.32V125.184C241.614 125.184 240.923 124.785 240.594 124.465C240.296 124.176 239.8 123.479 239.8 121.821H234.664ZM242.953 130.32V135.456C246.994 135.456 250.857 134.039 254.326 131.697L251.452 127.44L248.579 123.183C246.428 124.635 244.531 125.184 242.953 125.184V130.32ZM251.452 127.44L247.004 130.009L252.764 139.983L257.212 137.415L261.66 134.846L255.9 124.872L251.452 127.44ZM257.212 137.415L254.278 133.2C249.666 136.41 246.426 137.196 241.548 137.196V142.332V147.468C248.33 147.468 253.66 146.146 260.147 141.63L257.212 137.415ZM287.093 102.223V97.0866C285.473 97.0866 283.949 97.8503 282.979 99.1473L287.093 102.223ZM304.583 102.223L308.576 105.454C309.821 103.915 310.071 101.798 309.219 100.011C308.366 98.2244 306.563 97.0866 304.583 97.0866V102.223ZM288.778 121.751L284.786 118.519C283.267 120.396 283.26 123.076 284.769 124.961L288.778 121.751ZM304.583 141.489V146.625C306.558 146.625 308.358 145.493 309.213 143.713C310.068 141.933 309.827 139.82 308.593 138.279L304.583 141.489ZM287.233 141.489L283.117 144.562C284.087 145.86 285.612 146.625 287.233 146.625V141.489ZM275.854 126.246L279.969 123.174C278.646 121.4 276.335 120.674 274.235 121.372C272.135 122.069 270.717 124.033 270.717 126.246H275.854ZM275.854 141.489V146.625C278.69 146.625 280.99 144.326 280.99 141.489H275.854ZM261.173 141.489H256.037C256.037 144.326 258.336 146.625 261.173 146.625V141.489ZM261.173 89.6493V84.5131C258.336 84.5131 256.037 86.8126 256.037 89.6493H261.173ZM275.854 89.6493H280.99C280.99 86.8126 278.69 84.5131 275.854 84.5131V89.6493ZM275.854 117.255H270.717C270.717 119.467 272.134 121.431 274.233 122.129C276.332 122.827 278.643 122.102 279.967 120.331L275.854 117.255ZM287.093 102.223V107.359H304.583V102.223V97.0866H287.093V102.223ZM304.583 102.223L300.591 98.9916L284.786 118.519L288.778 121.751L292.771 124.982L308.576 105.454L304.583 102.223ZM288.778 121.751L284.769 124.961L300.574 144.699L304.583 141.489L308.593 138.279L292.788 118.54L288.778 121.751ZM304.583 141.489V136.353H287.233V141.489V146.625H304.583V141.489ZM287.233 141.489L291.349 138.416L279.969 123.174L275.854 126.246L271.738 129.319L283.117 144.562L287.233 141.489ZM275.854 126.246H270.717V141.489H275.854H280.99V126.246H275.854ZM275.854 141.489V136.353H261.173V141.489V146.625H275.854V141.489ZM261.173 141.489H266.309V89.6493H261.173H256.037V141.489H261.173ZM261.173 89.6493V94.7855H275.854V89.6493V84.5131H261.173V89.6493ZM275.854 89.6493H270.717V117.255H275.854H280.99V89.6493H275.854ZM275.854 117.255L279.967 120.331L291.206 105.298L287.093 102.223L282.979 99.1473L271.74 114.179L275.854 117.255Z" fill="#00004D" mask="url(#path-10-outside-3_861_229)"/>
<defs>
<linearGradient id="paint0_linear_861_229" x1="215.04" y1="50.3138" x2="215.04" y2="53.2917" gradientUnits="userSpaceOnUse">
<stop offset="1.22715e-08" stop-color="#1BF266"/>
<stop offset="1" stop-color="#12D456"/>
</linearGradient>
<linearGradient id="paint1_linear_861_229" x1="214.692" y1="116.989" x2="214.692" y2="123.707" gradientUnits="userSpaceOnUse">
<stop stop-color="white"/>
<stop offset="1" stop-color="#ECEDEC"/>
</linearGradient>
</defs>
</svg>
